<?xml version="1.0" encoding="utf-8"?><svg viewBox="0 0 40 40" xmlns="http://www.w3.org/2000/svg" xmlns:xlink="http://www.w3.org/1999/xlink"><style>:root>svg{display:none}:root>svg:target{display:block}</style><svg fill="none" viewBox="0 0 40 40" id="arrow_left" xmlns="http://www.w3.org/2000/svg"><path fill="none" d="M40 0H0v40h40z"/><path fill="none" d="M40 0H0v40h40z"/><path d="M3.333 20c0 9.2 7.483 16.667 16.667 16.667l.466-.007c8.985-.247 16.2-7.616 16.2-16.66C36.666 10.817 29.2 3.333 20 3.333 10.816 3.333 3.333 10.817 3.333 20zm19.95-4.9a1.242 1.242 0 00-.883-2.133c-.317 0-.633.116-.867.366l-5.816 5.784a1.248 1.248 0 000 1.766l5.816 5.784c.484.5 1.267.5 1.767 0a1.242 1.242 0 00-.017-1.767L18.366 20l4.917-4.9z" clip-rule="evenodd" fill="#141024" fill-rule="evenodd"/></svg><svg fill="none" viewBox="0 0 40 40" id="arrow_right" xmlns="http://www.w3.org/2000/svg"><path fill="none" d="M0 0h40v40H0z"/></svg><svg fill="none" viewBox="0 0 24 24" id="call" xmlns="http://www.w3.org/2000/svg"><path fill="none" d="M0 0h24v24H0z"/><path d="M18.167 14.38c-.672-.145-1.203.167-1.674.44-.482.28-1.398 1.023-1.923.833-2.69-1.107-5.218-3.46-6.313-6.16-.193-.536.547-1.459.826-1.946.27-.472.576-1.008.436-1.685-.125-.608-1.754-2.68-2.33-3.247-.38-.374-.768-.58-1.168-.613C4.52 1.938 2.844 3.941 2.55 4.42c-.736 1.022-.732 2.382.013 4.03 1.795 4.429 8.585 11.112 13.03 12.975.82.383 1.571.575 2.244.575.66 0 1.247-.184 1.751-.548.381-.22 2.467-1.98 2.412-3.521-.033-.393-.238-.786-.608-1.167-.562-.58-2.62-2.257-3.224-2.384z" fill="#FFF"/></svg><svg fill="none" viewBox="0 0 24 24" id="clue" xmlns="http://www.w3.org/2000/svg"><path d="M24 12c0 6.627-5.373 12-12 12S0 18.627 0 12 5.373 0 12 0s12 5.373 12 12z" fill="#141024" fill-opacity=".08"/><path d="M11.549 7.87c-.594 0-.89-.28-.89-.84 0-.55.296-.824.89-.824.593 0 .89.275.89.824 0 .56-.297.84-.89.84zm0 10.214c-.448 0-.672-.247-.672-.74v-6.87c0-.482.224-.723.672-.723.46 0 .689.24.689.722v6.872c0 .492-.23.739-.69.739z" fill="#141024"/></svg><svg fill="none" viewBox="0 0 30 30" id="facebook" xmlns="http://www.w3.org/2000/svg"><path d="M15 0C6.716 0 0 6.716 0 15c0 8.284 6.716 15 15 15 8.284 0 15-6.716 15-15 0-8.284-6.716-15-15-15zm1.564 15.659v8.16h-3.377v-8.16H11.5v-2.812h1.687v-1.689c0-2.294.953-3.658 3.659-3.658h2.253v2.813H17.69c-1.053 0-1.123.393-1.123 1.126l-.003 1.408h2.55l-.298 2.812h-2.252z" clip-rule="evenodd" fill="#141024" fill-rule="evenodd"/></svg><svg fill="none" viewBox="0 0 30 30" id="instagram" xmlns="http://www.w3.org/2000/svg"><path d="M15 0C6.716 0 0 6.716 0 15c0 8.284 6.716 15 15 15 8.284 0 15-6.716 15-15 0-8.284-6.716-15-15-15zm-3.298 7.048C12.555 7.01 12.828 7 14.998 7h.003c2.17 0 2.442.01 3.295.048.852.04 1.434.174 1.944.372.527.204.971.477 1.417.923.445.444.718.89.923 1.417.197.508.332 1.09.372 1.941.038.854.048 1.126.048 3.299s-.01 2.445-.048 3.298c-.04.851-.175 1.433-.372 1.942a3.927 3.927 0 01-.923 1.417c-.445.445-.89.719-1.417.923-.509.198-1.09.333-1.942.372-.854.039-1.126.048-3.298.048-2.173 0-2.445-.01-3.299-.048-.85-.04-1.432-.174-1.942-.372a3.915 3.915 0 01-1.416-.923 3.92 3.92 0 01-.923-1.417c-.198-.509-.333-1.09-.372-1.942C7.01 17.445 7 17.173 7 15s.01-2.446.048-3.299c.038-.851.174-1.433.372-1.941.205-.526.478-.973.923-1.417A3.921 3.921 0 019.76 7.42c.509-.198 1.09-.333 1.942-.372z" clip-rule="evenodd" fill="#141024" fill-rule="evenodd"/><path d="M14.734 8.441h-.45V8.44c-1.492.002-1.778.012-2.516.045-.78.036-1.204.166-1.485.276-.374.146-.64.319-.92.599-.28.28-.454.547-.6.92-.109.282-.24.705-.275 1.485-.038.844-.046 1.096-.046 3.232s.008 2.39.046 3.233c.036.78.166 1.203.276 1.485.145.374.319.64.599.92.28.28.546.453.92.598.282.11.705.24 1.485.276.843.038 1.097.046 3.233.046s2.39-.008 3.232-.046c.78-.036 1.204-.166 1.486-.276.373-.145.64-.318.92-.598.279-.28.453-.546.598-.92.11-.28.24-.704.275-1.484.039-.843.047-1.097.047-3.232 0-2.135-.008-2.388-.047-3.232-.035-.78-.166-1.203-.275-1.485a2.488 2.488 0 00-.599-.92 2.473 2.473 0 00-.92-.598c-.281-.11-.704-.24-1.485-.275-.843-.039-1.096-.047-3.232-.047h-.267zm4.537 1.329a.96.96 0 100 1.92.96.96 0 000-1.92zM10.893 15a4.108 4.108 0 118.216 0 4.108 4.108 0 01-8.216 0z" clip-rule="evenodd" fill="#141024" fill-rule="evenodd"/><path d="M15 12.334a2.667 2.667 0 110 5.333 2.667 2.667 0 010-5.334z" fill="#141024" fill-rule="evenodd"/></svg></svg>